<svg width="32" height="32" viewBox="0 0 32 32" fill="none" xmlns="http://www.w3.org/2000/svg">
<path d="M8 10.0651C8 8.25404 8 7.3485 8.38045 6.82343C8.71233 6.3654 9.22263 6.06932 9.78497 6.00851C10.4296 5.93879 11.2158 6.38819 12.7881 7.28699L23.1701 13.2218C24.7628 14.1323 25.5592 14.5875 25.8257 15.1833C26.0581 15.7029 26.0581 16.2969 25.8257 16.8165C25.5592 17.4123 24.7628 17.8676 23.1701 18.778L12.7881 24.7128C11.2158 25.6116 10.4296 26.061 9.78497 25.9913C9.22263 25.9305 8.71233 25.6344 8.38045 25.1764C8 24.6513 8 23.7458 8 21.9347V10.0651Z" fill="white"/>
</svg>
