<svg width="32" height="32" viewBox="0 0 32 32" fill="none" xmlns="http://www.w3.org/2000/svg">
<path fill-rule="evenodd" clip-rule="evenodd" d="M23 14.5C23 19.1944 19.1944 23 14.5 23C9.80558 23 6 19.1944 6 14.5C6 9.80558 9.80558 6 14.5 6C19.1944 6 23 9.80558 23 14.5ZM23.6233 21.502C25.1139 19.5628 26 17.1349 26 14.5C26 8.14873 20.8513 3 14.5 3C8.14873 3 3 8.14873 3 14.5C3 20.8513 8.14873 26 14.5 26C17.1349 26 19.5628 25.1139 21.502 23.6233L25.4393 27.5607C26.0251 28.1464 26.9749 28.1464 27.5607 27.5607C28.1464 26.9749 28.1464 26.0251 27.5607 25.4393L23.6233 21.502Z" fill="white"/>
</svg>
