<svg width="32" height="32" viewBox="0 0 32 32" fill="none" xmlns="http://www.w3.org/2000/svg">
<path fill-rule="evenodd" clip-rule="evenodd" d="M14.2947 2.59437C14.7946 2.25229 15.3405 1.99731 15.9999 1.99731C16.6593 1.99731 17.2052 2.25229 17.7051 2.59437C18.1698 2.91229 18.6848 3.3707 19.2784 3.89913L25.9833 9.8665C26.0354 9.9128 26.0867 9.95845 26.1374 10.0035C27.3082 11.0445 28.1221 11.7681 28.5617 12.7478C29.0013 13.7276 29.0008 14.8167 29 16.3833C28.9999 16.4511 28.9999 16.5198 28.9999 16.5895L28.9999 25.0543C29 25.4784 29.0001 25.8905 28.9544 26.2304C28.9028 26.6137 28.7773 27.0509 28.4141 27.4141C28.0509 27.7774 27.6136 27.9029 27.2304 27.9544C26.8905 28.0001 26.4784 28 26.0543 27.9999L22.7884 27.9999C22.4364 28 22.094 28 21.8079 27.9678C21.4896 27.9319 21.1201 27.8458 20.7824 27.5866C20.6437 27.4802 20.5196 27.3561 20.4132 27.2175C20.154 26.8797 20.0679 26.5102 20.032 26.1919C19.9998 25.9059 19.9998 25.5634 19.9999 25.2114L19.9999 20.9999C19.9999 18.7908 18.209 16.9999 15.9999 16.9999C13.7908 16.9999 11.9999 18.7908 11.9999 20.9999L11.9999 25.2114C12 25.5634 12 25.9059 11.9678 26.1919C11.9319 26.5102 11.8458 26.8797 11.5866 27.2175C11.4802 27.3561 11.3561 27.4802 11.2174 27.5866C10.8797 27.8458 10.5101 27.9319 10.1918 27.9678C9.90582 28 9.5634 28 9.21142 27.9999L5.9455 27.9999C5.52143 28 5.10929 28.0001 4.76937 27.9544C4.38617 27.9029 3.9489 27.7774 3.58568 27.4141C3.22246 27.0509 3.09694 26.6137 3.04542 26.2304C2.99972 25.8905 2.9998 25.4784 2.99989 25.0543L2.99989 16.5895C2.99989 16.5198 2.99986 16.4511 2.99982 16.3833C2.99902 14.8167 2.99846 13.7276 3.43806 12.7478C3.87765 11.7681 4.6916 11.0445 5.86241 10.0035C5.91309 9.95845 5.96443 9.91279 6.01645 9.8665L12.7214 3.89911C13.315 3.37069 13.83 2.91229 14.2947 2.59437Z" fill="white"/>
</svg>
