<svg width="32" height="32" viewBox="0 0 32 32" fill="none" xmlns="http://www.w3.org/2000/svg">
<path fill-rule="evenodd" clip-rule="evenodd" d="M15.4241 4.24496C15.0776 4.48206 14.6579 4.85298 14.0054 5.43371L7.3461 11.3605C5.95936 12.5947 5.50523 13.0263 5.26279 13.5666C5.02035 14.1069 4.99989 14.7331 4.99989 16.5895V24.9999C4.99989 25.4996 5.00202 25.7738 5.02759 25.964C5.02792 25.9664 5.02825 25.9689 5.02859 25.9712C5.03096 25.9716 5.03339 25.9719 5.03587 25.9722C5.22606 25.9978 5.50022 25.9999 5.99989 25.9999H10.1666C10.5807 25.9999 10.8077 25.9984 10.9678 25.9804C10.9717 25.98 10.9754 25.9795 10.979 25.9791C10.9795 25.9755 10.9799 25.9717 10.9804 25.9678C10.9984 25.8077 10.9999 25.5808 10.9999 25.1666V19.9999C10.9999 17.2385 13.2385 14.9999 15.9999 14.9999C18.7613 14.9999 20.9999 17.2385 20.9999 19.9999V25.1666C20.9999 25.5808 21.0014 25.8077 21.0194 25.9678C21.0199 25.9717 21.0203 25.9755 21.0207 25.9791C21.0244 25.9795 21.0281 25.98 21.032 25.9804C21.1921 25.9984 21.419 25.9999 21.8332 25.9999H25.9999C26.4996 25.9999 26.7737 25.9978 26.9639 25.9722C26.9664 25.9719 26.9688 25.9716 26.9712 25.9712C26.9715 25.9689 26.9719 25.9664 26.9722 25.964C26.9978 25.7738 26.9999 25.4996 26.9999 24.9999V16.5895C26.9999 14.7331 26.9794 14.1069 26.737 13.5666C26.4946 13.0263 26.0404 12.5947 24.6537 11.3605L17.9944 5.43371C17.3419 4.85298 16.9222 4.48206 16.5757 4.24496C16.2527 4.02391 16.1016 3.99731 15.9999 3.99731C15.8982 3.99731 15.7471 4.02391 15.4241 4.24496ZM14.2947 2.59437C14.7946 2.25229 15.3405 1.99731 15.9999 1.99731C16.6593 1.99731 17.2052 2.25229 17.7051 2.59437C18.1698 2.91229 18.6848 3.3707 19.2784 3.89913L25.9833 9.8665C26.0354 9.9128 26.0867 9.95845 26.1374 10.0035C27.3082 11.0445 28.1221 11.7681 28.5617 12.7478C29.0013 13.7276 29.0008 14.8167 29 16.3833C28.9999 16.4511 28.9999 16.5198 28.9999 16.5895L28.9999 25.0543C29 25.4784 29.0001 25.8905 28.9544 26.2304C28.9028 26.6137 28.7773 27.0509 28.4141 27.4141C28.0509 27.7774 27.6136 27.9029 27.2304 27.9544C26.8905 28.0001 26.4784 28 26.0543 27.9999L21.7884 27.9999C21.4364 28 21.094 28 20.8079 27.9678C20.4896 27.9319 20.1201 27.8458 19.7824 27.5866C19.6437 27.4802 19.5196 27.3561 19.4132 27.2175C19.154 26.8797 19.0679 26.5102 19.032 26.1919C18.9998 25.9059 18.9998 25.5634 18.9999 25.2114L18.9999 19.9999C18.9999 18.3431 17.6567 16.9999 15.9999 16.9999C14.343 16.9999 12.9999 18.3431 12.9999 19.9999L12.9999 25.2114C13 25.5634 13 25.9059 12.9678 26.1919C12.9319 26.5102 12.8458 26.8797 12.5866 27.2175C12.4802 27.3561 12.3561 27.4802 12.2174 27.5866C11.8797 27.8458 11.5101 27.9319 11.1918 27.9678C10.9058 28 10.5634 28 10.2114 27.9999L5.9455 27.9999C5.52143 28 5.10929 28.0001 4.76937 27.9544C4.38617 27.9029 3.9489 27.7774 3.58568 27.4141C3.22246 27.0509 3.09694 26.6137 3.04542 26.2304C2.99972 25.8905 2.9998 25.4784 2.99989 25.0543L2.99989 16.5895C2.99989 16.5198 2.99986 16.4511 2.99982 16.3833C2.99902 14.8167 2.99846 13.7276 3.43806 12.7478C3.87765 11.7681 4.6916 11.0445 5.86241 10.0035C5.91309 9.95845 5.96443 9.91279 6.01645 9.8665L12.7214 3.89911C13.315 3.37069 13.83 2.91229 14.2947 2.59437Z" fill="white"/>
</svg>
